<svg xmlns="http://www.w3.org/2000/svg" viewBox="0 0 32 32"><defs><style>.cls-1{fill:#68c7d3;}.cls-2{fill:#a1d8df;}.cls-3{fill:#d1e6e9;}.cls-4{fill:#30acc2;}</style></defs><title>Hospital</title><g id="Hospital"><rect class="cls-1" x="1" y="29" width="30" height="2"/><rect class="cls-2" x="2" y="5" width="6" height="24"/><rect class="cls-3" x="8" y="1" width="16" height="28"/><rect class="cls-1" x="2" y="16" width="4" height="4"/><rect class="cls-1" x="2" y="10" width="4" height="4"/><rect class="cls-1" x="2" y="22" width="4" height="4"/><rect class="cls-2" x="24" y="5" width="6" height="24" transform="translate(54 34) rotate(-180)"/><rect class="cls-1" x="26" y="16" width="4" height="4" transform="translate(56 36) rotate(-180)"/><rect class="cls-1" x="26" y="10" width="4" height="4" transform="translate(56 24) rotate(-180)"/><rect class="cls-1" x="26" y="22" width="4" height="4" transform="translate(56 48) rotate(-180)"/><rect class="cls-1" x="7" y="1" width="18" height="2"/><rect class="cls-4" x="15" y="5" width="2" height="6"/><rect class="cls-4" x="15" y="5" width="2" height="6" transform="translate(24 -8) rotate(90)"/><rect class="cls-2" x="13" y="21" width="6" height="8"/><rect class="cls-4" x="1" y="5" width="7" height="2"/><rect class="cls-4" x="24" y="5" width="7" height="2" transform="translate(55 12) rotate(-180)"/><rect class="cls-1" x="11" y="13" width="2" height="2"/><rect class="cls-1" x="15" y="13" width="2" height="2"/><rect class="cls-1" x="19" y="13" width="2" height="2"/><rect class="cls-1" x="11" y="17" width="2" height="2"/><rect class="cls-1" x="15" y="17" width="2" height="2"/><rect class="cls-1" x="19" y="17" width="2" height="2"/></g></svg>